<?xml version="1.0" standalone="no"?>
<!DOCTYPE svg PUBLIC "-//W3C//DTD SVG 20010904//EN"
 "http://www.w3.org/TR/2001/REC-SVG-20010904/DTD/svg10.dtd">
<svg version="1.0" xmlns="http://www.w3.org/2000/svg"
 width="240.000000pt" height="300.000000pt" viewBox="0 0 240.000000 300.000000"
 preserveAspectRatio="xMidYMid meet">

<g transform="translate(0.000000,300.000000) scale(0.100000,-0.100000)"
fill="#000000" stroke="none">
<path d="M984 2990 c-219 -16 -493 -72 -657 -134 -110 -42 -216 -95 -226 -114
-12 -23 -46 -233 -66 -405 -25 -220 -36 -525 -25 -724 14 -261 30 -355 101
-566 136 -408 428 -710 939 -971 l149 -77 121 61 c461 231 740 482 895 805 84
175 146 383 164 555 36 335 17 787 -50 1190 -12 70 -27 132 -36 142 -19 21
-193 98 -298 131 -114 36 -291 74 -426 91 -145 19 -438 27 -585 16z m472 -91
c273 -26 548 -95 715 -180 l56 -28 22 -138 c36 -227 51 -405 58 -648 12 -468
-36 -736 -186 -1033 -140 -277 -400 -508 -805 -717 l-116 -60 -103 54 c-269
140 -430 253 -582 405 -184 185 -295 391 -369 681 -42 166 -51 267 -50 575 1
298 13 464 56 738 l22 144 45 23 c180 90 453 158 761 188 83 9 375 6 476 -4z"/>
<path d="M1468 2623 c-97 -111 -106 -150 -57 -228 17 -28 32 -63 33 -80 l1
-30 -70 -3 c-105 -5 -147 5 -215 49 -53 34 -61 43 -58 67 2 22 9 28 33 30 49
5 64 14 36 21 -40 11 -38 31 4 31 29 0 36 3 33 18 -2 11 -14 18 -36 20 -18 2
-36 10 -39 18 -3 8 -12 14 -20 14 -8 0 -20 14 -26 30 -6 17 -14 30 -17 30 -3
0 -24 -52 -48 -116 -46 -124 -54 -176 -68 -450 -5 -97 -3 -133 5 -139 7 -4 15
-4 19 0 4 4 9 65 12 137 4 115 7 131 25 144 23 17 61 11 89 -14 36 -33 54 -86
61 -180 6 -72 11 -92 23 -92 12 0 14 16 7 109 -6 103 -5 111 14 130 28 28 109
29 141 3 31 -25 22 -47 -51 -130 -34 -39 -59 -76 -59 -89 0 -34 32 -29 49 7
15 36 127 130 154 130 29 0 30 -25 3 -77 -14 -26 -26 -56 -26 -66 0 -25 34
-18 39 8 2 11 16 38 32 59 33 45 37 90 13 125 -13 18 -18 63 -24 204 -4 100
-5 215 -1 255 4 39 6 72 5 72 0 0 -8 -8 -16 -17z"/>
<path d="M626 2428 c-4 -13 -67 -487 -66 -500 0 -5 54 -8 119 -8 l120 0 3 -32
c3 -32 5 -33 53 -36 l50 -3 -17 258 c-9 142 -17 275 -17 296 -1 36 -2 37 -36
37 -35 0 -35 0 -35 -46 l0 -45 -47 3 -48 3 -3 43 c-3 41 -4 42 -38 42 -19 0
-36 -6 -38 -12z"/>
<path d="M1575 2428 c-5 -16 -35 -469 -35 -532 l0 -46 50 0 50 0 0 35 0 35
120 0 c88 0 122 3 125 13 2 6 -13 122 -33 257 l-37 245 -37 3 -38 3 0 -45 0
-46 -50 0 -50 0 0 45 c0 43 -1 45 -30 45 -17 0 -33 -6 -35 -12z"/>
<path d="M550 1890 c0 -11 -107 -632 -114 -662 -4 -17 13 -18 252 -18 l257 0
17 89 c51 263 176 399 321 352 89 -30 173 -170 213 -358 l17 -83 253 0 c235 0
252 1 248 18 -5 26 -114 659 -114 666 0 3 -54 6 -120 6 l-120 0 0 -40 0 -41
-67 3 -68 3 -3 33 c-3 32 -4 32 -58 32 l-54 0 0 -35 0 -35 -65 0 -65 0 0 30
c0 30 -1 30 -55 30 -54 0 -55 0 -55 -30 l0 -30 -65 0 -65 0 0 35 0 35 -60 0
-60 0 0 -35 0 -35 -65 0 c-62 0 -65 1 -65 24 0 54 -4 56 -126 56 -70 0 -114
-4 -114 -10z"/>
<path d="M1858 1109 c-56 -8 -138 -26 -418 -91 -193 -45 -297 -44 -480 6 -248
67 -316 79 -445 79 -98 1 -131 -3 -179 -21 -32 -12 -61 -24 -64 -27 -3 -2 3
-23 13 -46 15 -33 22 -39 39 -34 45 13 224 17 296 6 41 -6 161 -33 265 -59
178 -44 198 -47 320 -47 122 1 143 4 340 52 278 69 327 76 456 71 l108 -4 16
38 c8 21 15 45 15 52 0 31 -153 44 -282 25z"/>
<path d="M1785 866 c-44 -8 -161 -35 -260 -61 -147 -39 -200 -48 -290 -52
-107 -4 -116 -3 -308 46 -294 75 -427 86 -525 46 l-33 -14 25 -37 24 -36 129
-3 c119 -2 141 -6 314 -53 330 -91 364 -91 716 -2 148 38 264 62 321 66 l91 7
23 43 c12 24 19 46 15 50 -13 13 -161 13 -242 0z"/>
</g>
</svg>
